<?xml version="1.0" encoding="UTF-8"?>
<svg version="1.1" xmlns="http://www.w3.org/2000/svg" width="64" height="64">
<path d="M0 0 C1.78868488 -0.02653739 3.57721879 -0.06738625 5.36523438 -0.12304688 C20.20571431 -0.57967703 20.20571431 -0.57967703 24.81103516 1.98339844 C29.07335025 6.18255199 30.18763415 9.4361147 30.26397705 15.40330505 C30.26822693 16.21477493 30.27247681 17.02624481 30.27685547 17.86230469 C30.28255554 18.69580948 30.28825562 19.52931427 30.29412842 20.38807678 C30.30358091 22.15250375 30.31011339 23.9169484 30.31396484 25.68139648 C30.32367951 28.38328729 30.35470351 31.08442034 30.38623047 33.78613281 C30.3927596 35.49901891 30.39801043 37.21191046 30.40185547 38.92480469 C30.41420227 39.73425034 30.42654907 40.54369598 30.43927002 41.37767029 C30.41696913 46.98136818 30.41696913 46.98136818 28.84515381 49.17301941 C26.555139 50.83671836 25.19181985 50.84011077 22.37451172 50.84814453 C20.94788208 50.86232925 20.94788208 50.86232925 19.49243164 50.87680054 C18.46738525 50.87072784 17.44233887 50.86465515 16.38623047 50.85839844 C15.33218018 50.86126862 14.27812988 50.86413879 13.19213867 50.86709595 C10.96288516 50.86913807 8.7336138 50.86359792 6.50439453 50.85107422 C3.08699578 50.83502324 -0.32922019 50.85091853 -3.74658203 50.87011719 C-5.91064715 50.86813478 -8.07471153 50.86429117 -10.23876953 50.85839844 C-11.26381592 50.86447113 -12.2888623 50.87054382 -13.3449707 50.87680054 C-14.29605713 50.86734406 -15.24714355 50.85788757 -16.22705078 50.84814453 C-17.06405518 50.84575775 -17.90105957 50.84337097 -18.76342773 50.84091187 C-21.455269 50.36678591 -22.33515003 49.66016458 -23.92626953 47.45996094 C-24.27365656 44.61270175 -24.44196724 41.98844571 -24.46533203 39.13574219 C-24.4776889 38.31551071 -24.49004578 37.49527924 -24.5027771 36.65019226 C-24.52234757 34.91278208 -24.5335762 33.17526094 -24.53710938 31.43774414 C-24.55113362 28.79804222 -24.61837229 26.16315621 -24.68798828 23.52441406 C-24.86804012 9.38125763 -24.86804012 9.38125763 -20.44970703 4.31542969 C-18.53320312 2.62866211 -18.53320312 2.62866211 -16.92626953 1.45996094 C-14.06594307 -1.40036552 -4.03548478 0.04571534 0 0 Z " fill="#D4D4D5" transform="translate(28.92626953125,6.5400390625)"/>
<path d="M0 0 C1.78868488 -0.02653739 3.57721879 -0.06738625 5.36523438 -0.12304688 C20.20571431 -0.57967703 20.20571431 -0.57967703 24.81103516 1.98339844 C29.07335025 6.18255199 30.18763415 9.4361147 30.26397705 15.40330505 C30.26822693 16.21477493 30.27247681 17.02624481 30.27685547 17.86230469 C30.28255554 18.69580948 30.28825562 19.52931427 30.29412842 20.38807678 C30.30358091 22.15250375 30.31011339 23.9169484 30.31396484 25.68139648 C30.32367951 28.38328729 30.35470351 31.08442034 30.38623047 33.78613281 C30.3927596 35.49901891 30.39801043 37.21191046 30.40185547 38.92480469 C30.41420227 39.73425034 30.42654907 40.54369598 30.43927002 41.37767029 C30.41696913 46.98136818 30.41696913 46.98136818 28.84515381 49.17301941 C26.555139 50.83671836 25.19181985 50.84011077 22.37451172 50.84814453 C20.94788208 50.86232925 20.94788208 50.86232925 19.49243164 50.87680054 C18.46738525 50.87072784 17.44233887 50.86465515 16.38623047 50.85839844 C15.33218018 50.86126862 14.27812988 50.86413879 13.19213867 50.86709595 C10.96288516 50.86913807 8.7336138 50.86359792 6.50439453 50.85107422 C3.08699578 50.83502324 -0.32922019 50.85091853 -3.74658203 50.87011719 C-5.91064715 50.86813478 -8.07471153 50.86429117 -10.23876953 50.85839844 C-11.26381592 50.86447113 -12.2888623 50.87054382 -13.3449707 50.87680054 C-14.29605713 50.86734406 -15.24714355 50.85788757 -16.22705078 50.84814453 C-17.06405518 50.84575775 -17.90105957 50.84337097 -18.76342773 50.84091187 C-21.455269 50.36678591 -22.33515003 49.66016458 -23.92626953 47.45996094 C-24.27365656 44.61270175 -24.44196724 41.98844571 -24.46533203 39.13574219 C-24.4776889 38.31551071 -24.49004578 37.49527924 -24.5027771 36.65019226 C-24.52234757 34.91278208 -24.5335762 33.17526094 -24.53710938 31.43774414 C-24.55113362 28.79804222 -24.61837229 26.16315621 -24.68798828 23.52441406 C-24.86804012 9.38125763 -24.86804012 9.38125763 -20.44970703 4.31542969 C-18.53320312 2.62866211 -18.53320312 2.62866211 -16.92626953 1.45996094 C-14.06594307 -1.40036552 -4.03548478 0.04571534 0 0 Z M-20.92626953 11.45996094 C-20.9491791 16.42624528 -20.96910596 21.39234756 -20.98120117 26.35864258 C-20.98624143 28.04940409 -20.99307358 29.74016123 -21.00170898 31.4309082 C-21.0137881 33.85596801 -21.01950076 36.28097038 -21.02392578 38.70605469 C-21.02908707 39.46647568 -21.03424835 40.22689667 -21.03956604 41.01036072 C-21.03976191 42.82728664 -20.9882423 44.64409221 -20.92626953 46.45996094 C-19.36961073 48.01661974 -17.87775244 47.58717923 -15.71362305 47.58935547 C-14.37201866 47.59408371 -14.37201866 47.59408371 -13.00331116 47.59890747 C-12.03042648 47.59688324 -11.05754181 47.59485901 -10.05517578 47.59277344 C-9.06251205 47.59373016 -8.06984833 47.59468689 -7.04710388 47.59567261 C-4.94294166 47.5963546 -2.83877735 47.594499 -0.73461914 47.59033203 C2.49386306 47.58498968 5.72220578 47.59027349 8.95068359 47.59667969 C10.99039744 47.5960188 13.03011121 47.59473741 15.06982422 47.59277344 C16.52611488 47.59580978 16.52611488 47.59580978 18.01182556 47.59890747 C18.90938065 47.59575531 19.80693573 47.59260315 20.73168945 47.58935547 C21.52365219 47.58855988 22.31561493 47.58776428 23.13157654 47.58694458 C25.15547703 47.58071478 25.15547703 47.58071478 27.07373047 46.45996094 C27.07373047 34.90996094 27.07373047 23.35996094 27.07373047 11.45996094 C21.79373047 11.45996094 16.51373047 11.45996094 11.07373047 11.45996094 C10.74373047 15.08996094 10.41373047 18.71996094 10.07373047 22.45996094 C7.59873047 21.96496094 7.59873047 21.96496094 5.07373047 21.45996094 C0.87761433 21.32921685 0.87761433 21.32921685 -3.92626953 22.45996094 C-4.25626953 18.82996094 -4.58626953 15.19996094 -4.92626953 11.45996094 C-10.20626953 11.45996094 -15.48626953 11.45996094 -20.92626953 11.45996094 Z " fill="#2B2B2C" transform="translate(28.92626953125,6.5400390625)"/>
<path d="M0 0 C1.78868488 -0.02653739 3.57721879 -0.06738625 5.36523438 -0.12304688 C20.26217168 -0.58141418 20.26217168 -0.58141418 24.84619141 2.05371094 C26.56862812 3.77527992 27.88436428 5.3421923 29.07373047 7.45996094 C28.74373047 8.11996094 28.41373047 8.77996094 28.07373047 9.45996094 C17.07373047 9.45996094 6.07373047 9.45996094 -4.92626953 9.45996094 C-7.61481705 9.59481871 -10.30148376 9.74103336 -12.98876953 9.89746094 C-13.73449219 9.93677734 -14.48021484 9.97609375 -15.24853516 10.01660156 C-18.89173564 9.91001205 -18.89173564 9.91001205 -21.92626953 11.45996094 C-22.01485599 14.19890179 -22.04150432 16.91249364 -22.02392578 19.65136719 C-22.02251083 20.4712059 -22.02109589 21.29104462 -22.01963806 22.13572693 C-22.01402242 24.76467476 -22.00146732 27.39353867 -21.98876953 30.02246094 C-21.98375654 31.8004545 -21.97919329 33.5784494 -21.97509766 35.35644531 C-21.96404792 39.72431639 -21.94677284 44.09212442 -21.92626953 48.45996094 C-22.58626953 48.12996094 -23.24626953 47.79996094 -23.92626953 47.45996094 C-24.1002697 42.19483053 -24.22677863 36.93139886 -24.31079102 31.6640625 C-24.34583523 29.87535425 -24.39348754 28.08684423 -24.4543457 26.29882812 C-25.01107904 9.51261628 -25.01107904 9.51261628 -20.46142578 4.30371094 C-18.53979492 2.62207031 -18.53979492 2.62207031 -16.92626953 1.45996094 C-14.06594307 -1.40036552 -4.03548478 0.04571534 0 0 Z " fill="#6B6B6C" transform="translate(28.92626953125,6.5400390625)"/>
<path d="M0 0 C3.96 0 7.92 0 12 0 C12 3.3 12 6.6 12 10 C10.948125 9.62875 9.89625 9.2575 8.8125 8.875 C4.81367786 7.95723754 3.50871784 8.08615391 0 10 C0 6.7 0 3.4 0 0 Z " fill="#DEDEE0" transform="translate(26,18)"/>
<path d="M0 0 C0.721875 0.00257812 1.44375 0.00515625 2.1875 0.0078125 C2.909375 0.00523438 3.63125 0.00265625 4.375 0 C6.1875 0.1328125 6.1875 0.1328125 7.1875 1.1328125 C7.3203125 2.9453125 7.3203125 2.9453125 7.3125 5.1328125 C7.31507812 5.8546875 7.31765625 6.5765625 7.3203125 7.3203125 C7.1875 9.1328125 7.1875 9.1328125 6.1875 10.1328125 C4.375 10.265625 4.375 10.265625 2.1875 10.2578125 C1.465625 10.26039062 0.74375 10.26296875 0 10.265625 C-1.8125 10.1328125 -1.8125 10.1328125 -2.8125 9.1328125 C-2.9453125 7.3203125 -2.9453125 7.3203125 -2.9375 5.1328125 C-2.94007812 4.4109375 -2.94265625 3.6890625 -2.9453125 2.9453125 C-2.7645617 0.47859567 -2.46671683 0.1807508 0 0 Z " fill="#030303" transform="translate(12.8125,19.8671875)"/>
<path d="M0 0 C1.93166016 0.01740234 1.93166016 0.01740234 3.90234375 0.03515625 C5.19269531 0.04417969 6.48304687 0.05320313 7.8125 0.0625 C8.81152344 0.07410156 9.81054688 0.08570313 10.83984375 0.09765625 C11.22203142 1.75380282 11.55379477 3.42222649 11.83984375 5.09765625 C10.83984375 6.09765625 10.83984375 6.09765625 7.6796875 6.1953125 C5.74802734 6.17791016 5.74802734 6.17791016 3.77734375 6.16015625 C2.48699219 6.15113281 1.19664063 6.14210938 -0.1328125 6.1328125 C-1.13183594 6.12121094 -2.13085938 6.10960937 -3.16015625 6.09765625 C-3.54234392 4.44150968 -3.87410727 2.77308601 -4.16015625 1.09765625 C-3.16015625 0.09765625 -3.16015625 0.09765625 0 0 Z " fill="#454545" transform="translate(28.16015625,33.90234375)"/>
<path d="M0 0 C4.0393121 -0.28580038 7.96958602 -0.45020582 12 0 C14.75 2.4375 14.75 2.4375 16 5 C16 5.33 16 5.66 16 6 C11.05 6 6.1 6 1 6 C0.67 4.02 0.34 2.04 0 0 Z " fill="#DADADC" transform="translate(38,10)"/>
<path d="M0 0 C1.09054688 0.02320313 2.18109375 0.04640625 3.3046875 0.0703125 C4.40039062 0.08835937 5.49609375 0.10640625 6.625 0.125 C7.46804687 0.14820313 8.31109375 0.17140625 9.1796875 0.1953125 C8.5196875 2.1753125 7.8596875 4.1553125 7.1796875 6.1953125 C2.5596875 6.1953125 -2.0603125 6.1953125 -6.8203125 6.1953125 C-3.85618051 0.26704851 -3.85618051 0.26704851 0 0 Z " fill="#DBDBDD" transform="translate(16.8203125,9.8046875)"/>
<path d="M0 0 C2.64 0 5.28 0 8 0 C8.33 1.98 8.66 3.96 9 6 C5.7 6 2.4 6 -1 6 C-0.67 4.02 -0.34 2.04 0 0 Z " fill="#D8D8DA" transform="translate(28,10)"/>
<path d="M0 0 C1.98 0 3.96 0 6 0 C6 1.98 6 3.96 6 6 C4.02 6 2.04 6 0 6 C0 4.02 0 2.04 0 0 Z " fill="#E1E1E3" transform="translate(12,22)"/>
<path d="M0 0 C0.66 0.33 1.32 0.66 2 1 C1.0919838 2.13199353 0.17316174 3.25532363 -0.75 4.375 C-1.26046875 5.00148438 -1.7709375 5.62796875 -2.296875 6.2734375 C-4.08199481 8.08312318 -5.67949644 9.00117455 -8 10 C-7.52153935 5.69385411 -6.34073619 3.75119451 -3 1 C-2.01 0.67 -1.02 0.34 0 0 Z " fill="#4E4E4E" transform="translate(14,8)"/>
<path d="M0 0 C-0.33 0.99 -0.66 1.98 -1 3 C-1.7425 2.62875 -2.485 2.2575 -3.25 1.875 C-5.94283647 0.70484137 -5.94283647 0.70484137 -8.3125 1.875 C-9.1478125 2.431875 -9.1478125 2.431875 -10 3 C-10 2.01 -10 1.02 -10 0 C-6.22996568 -2.61002376 -4.07631429 -1.66758312 0 0 Z " fill="#212121" transform="translate(37,27)"/>
</svg>
