<?xml version="1.0" encoding="UTF-8"?>
<svg version="1.1" xmlns="http://www.w3.org/2000/svg" width="96" height="96">
<path d="M0 0 C1.10487259 -0.01606293 2.20974518 -0.03212585 3.34809875 -0.04867554 C8.40328416 -0.09304925 13.45833737 -0.13418692 18.51367188 -0.15722656 C21.18258553 -0.17056178 23.84969179 -0.20108692 26.51855469 -0.23925781 C30.36050505 -0.29394242 34.20141436 -0.31588877 38.04370117 -0.33056641 C39.23655228 -0.35323578 40.42940338 -0.37590515 41.65840149 -0.39926147 C49.91676598 -0.37813967 49.91676598 -0.37813967 53.62841797 2.28808594 C54.31589111 3.24666504 55.00336426 4.20524414 55.71166992 5.19287109 C56.23774841 5.66473846 56.7638269 6.13660583 57.30584717 6.62277222 C61.10497927 10.17709597 62.12839793 12.98540124 62.44042969 18.17236328 C62.45965502 20.52811201 62.44534438 22.88429814 62.40307617 25.23974609 C62.40170151 26.487901 62.40032684 27.73605591 62.39891052 29.02203369 C62.3875632 32.32264495 62.34866698 35.62149374 62.29852295 38.92169189 C62.26602245 41.61907038 62.26711823 44.31599029 62.26893711 47.01353073 C62.26792576 50.23490253 62.24142536 53.4559916 62.21557617 56.67724609 C62.21056847 58.49128937 62.21056847 58.49128937 62.20545959 60.34197998 C62.17675026 62.01952362 62.17675026 62.01952362 62.14746094 63.73095703 C62.13602554 64.71578064 62.12459015 65.70060425 62.11280823 66.715271 C61.71166992 69.19287109 61.71166992 69.19287109 60.61582947 71.00997925 C57.7035061 72.81915725 55.21453544 72.57462147 51.80932617 72.58105469 C51.11144989 72.58631165 50.41357361 72.5915686 49.69454956 72.59698486 C47.38752872 72.61018955 45.08119779 72.60144564 42.77416992 72.59130859 C41.17138537 72.59332921 39.56860171 72.59624054 37.96582031 72.6000061 C34.60660042 72.60443007 31.24761982 72.59799622 27.88842773 72.58398438 C23.58060153 72.56689225 19.27333602 72.57673307 14.9655304 72.59470177 C11.65584074 72.60553775 8.34628422 72.60209416 5.03659058 72.59431839 C3.44814996 72.59231586 1.85969729 72.59477753 0.27127075 72.60175705 C-1.94814104 72.60936873 -4.16664242 72.59777255 -6.38598633 72.58105469 C-7.64934814 72.57866791 -8.91270996 72.57628113 -10.21435547 72.57382202 C-13.28833008 72.19287109 -13.28833008 72.19287109 -15.18951416 71.00601196 C-16.69311456 68.52494185 -16.71072551 66.69138642 -16.77172852 63.79443359 C-16.80055115 62.68898193 -16.82937378 61.58353027 -16.85906982 60.44458008 C-16.87181946 59.24776611 -16.88456909 58.05095215 -16.89770508 56.81787109 C-16.9148053 55.58302979 -16.93190552 54.34818848 -16.94952393 53.07592773 C-16.9778941 50.4566215 -16.99748395 47.83720785 -17.0090332 45.21777344 C-17.02859698 41.23533716 -17.13100084 37.2562486 -17.22583008 33.27490234 C-17.24543431 30.72675277 -17.26118019 28.17857002 -17.27270508 25.63037109 C-17.30974548 24.44975098 -17.34678589 23.26913086 -17.38494873 22.05273438 C-17.31842025 13.69782866 -15.00443625 9.40121516 -9.41778564 3.22436523 C-6.18791852 0.14308181 -4.36610171 0.0575712 0 0 Z M-6.28833008 6.19287109 C-8.26833008 9.16287109 -8.26833008 9.16287109 -10.28833008 12.19287109 C-3.35833008 12.19287109 3.57166992 12.19287109 10.71166992 12.19287109 C11.70166992 9.22287109 12.69166992 6.25287109 13.71166992 3.19287109 C11.31514464 3.11147967 8.92141556 3.05220101 6.52416992 3.00537109 C5.51386719 2.96766602 5.51386719 2.96766602 4.4831543 2.92919922 C-0.0214299 2.86327847 -2.79285769 3.3131814 -6.28833008 6.19287109 Z M31.71166992 3.19287109 C32.70166992 6.16287109 33.69166992 9.13287109 34.71166992 12.19287109 C41.64166992 12.19287109 48.57166992 12.19287109 55.71166992 12.19287109 C50.97658099 4.29828035 50.97658099 4.29828035 46.71166992 3.19287109 C44.13901174 3.12257989 41.59525561 3.09916277 39.02416992 3.13037109 C38.32227539 3.13488281 37.62038086 3.13939453 36.8972168 3.14404297 C35.16866454 3.15580183 33.44015627 3.17373656 31.71166992 3.19287109 Z M-13.28833008 16.19287109 C-13.39181938 17.67548554 -13.42683693 19.16296335 -13.43359375 20.64916992 C-13.4399736 21.59717972 -13.44635345 22.54518951 -13.45292664 23.52192688 C-13.45403946 24.55415878 -13.45515228 25.58639069 -13.45629883 26.64990234 C-13.45962723 27.70441086 -13.46295563 28.75891937 -13.46638489 29.84538269 C-13.47145965 32.08238284 -13.47379304 34.31939059 -13.47363281 36.55639648 C-13.47581409 39.98027058 -13.49394976 43.40381993 -13.51293945 46.82763672 C-13.51587428 48.99755749 -13.51785848 51.16747979 -13.51879883 53.33740234 C-13.52598434 54.36356155 -13.53316986 55.38972076 -13.54057312 56.44697571 C-13.53749649 57.40444199 -13.53441986 58.36190826 -13.53125 59.34838867 C-13.53267502 60.18920486 -13.53410004 61.03002106 -13.53556824 61.89631653 C-13.25944304 64.46119806 -12.71736359 66.04780491 -11.28833008 68.19287109 C-8.06120003 69.26858111 -5.71397654 69.32618514 -2.31982422 69.33813477 C-0.47760033 69.34770454 -0.47760033 69.34770454 1.40184021 69.35746765 C2.74339763 69.35899632 4.08495558 69.36011028 5.42651367 69.36083984 C6.80269913 69.36405349 8.17888424 69.36741765 9.55506897 69.3709259 C12.43922721 69.37691251 15.32335551 69.37876627 18.20751953 69.37817383 C21.90082304 69.37807219 25.59393438 69.39172829 29.28719234 69.40894604 C32.12936788 69.42007108 34.97149701 69.42209289 37.81369209 69.4215641 C39.17523423 69.42274331 40.53677759 69.42716177 41.89829826 69.43489647 C43.80343012 69.4447067 45.70861837 69.44055138 47.61376953 69.43579102 C48.69726181 69.43721603 49.78075409 69.43864105 50.89707947 69.44010925 C53.73677891 69.19066548 55.38186204 68.81729423 57.71166992 67.19287109 C58.67613231 64.29948391 58.83822649 62.46911519 58.84106445 59.46191406 C58.84579269 58.02560135 58.84579269 58.02560135 58.85061646 56.56027222 C58.84859222 55.52895172 58.84656799 54.49763123 58.84448242 53.43505859 C58.84591751 51.84686813 58.84591751 51.84686813 58.84738159 50.22659302 C58.84806218 47.98895203 58.84621631 45.75130907 58.84204102 43.51367188 C58.83668051 40.07466236 58.84199555 36.63578284 58.84838867 33.19677734 C58.84772808 31.02620414 58.8464473 28.85563101 58.84448242 26.68505859 C58.84751877 25.13200516 58.84751877 25.13200516 58.85061646 23.5475769 C58.84746429 22.59633942 58.84431213 21.64510193 58.84106445 20.66503906 C58.84026886 19.82359344 58.83947327 18.98214783 58.83865356 18.11520386 C58.92317681 16.18472423 58.92317681 16.18472423 57.71166992 15.19287109 C56.00394635 15.10573278 54.29268343 15.08587102 52.58276367 15.09521484 C51.54829102 15.0984375 50.51381836 15.10166016 49.44799805 15.10498047 C48.35938477 15.11335938 47.27077148 15.12173828 46.14916992 15.13037109 C45.05668945 15.13488281 43.96420898 15.13939453 42.83862305 15.14404297 C40.12961561 15.1558727 37.42063612 15.17380878 34.71166992 15.19287109 C34.38166992 21.13287109 34.05166992 27.07287109 33.71166992 33.19287109 C27.71166992 32.19287109 27.71166992 32.19287109 24.71166992 30.19287109 C20.88063951 30.51212363 18.94486439 31.03740811 15.71166992 33.19287109 C14.39166992 33.19287109 13.07166992 33.19287109 11.71166992 33.19287109 C11.38166992 27.25287109 11.05166992 21.31287109 10.71166992 15.19287109 C6.8991237 15.16604317 3.0867638 15.14611632 -0.72583008 15.13037109 C-1.81444336 15.12199219 -2.90305664 15.11361328 -4.0246582 15.10498047 C-5.57636719 15.10014648 -5.57636719 15.10014648 -7.15942383 15.09521484 C-8.11776123 15.08997803 -9.07609863 15.08474121 -10.06347656 15.0793457 C-12.26118347 14.94233979 -12.26118347 14.94233979 -13.28833008 16.19287109 Z " fill="#624EFF" transform="translate(25.288330078125,11.80712890625)"/>
<path d="M0 0 C5.94 0 11.88 0 18 0 C18 4.95 18 9.9 18 15 C16.35 14.34 14.7 13.68 13 13 C9.25542042 11.98584303 7.73613917 11.61519998 4.25 13.4375 C3.5075 13.953125 2.765 14.46875 2 15 C1.34 15 0.68 15 0 15 C0 10.05 0 5.1 0 0 Z " fill="#BBB3FF" transform="translate(39,27)"/>
<path d="M0 0 C0.98484375 -0.00128906 1.9696875 -0.00257812 2.984375 -0.00390625 C4.02078125 -0.00003906 5.0571875 0.00382812 6.125 0.0078125 C7.67960937 0.00201172 7.67960937 0.00201172 9.265625 -0.00390625 C10.25046875 -0.00261719 11.2353125 -0.00132813 12.25 0 C13.16007812 0.00112793 14.07015625 0.00225586 15.0078125 0.00341797 C17.125 0.1328125 17.125 0.1328125 18.125 1.1328125 C18.25 4.6328125 18.25 4.6328125 18.125 8.1328125 C16.47105883 9.78675367 14.52184587 9.26280933 12.25 9.265625 C11.26515625 9.26691406 10.2803125 9.26820312 9.265625 9.26953125 C8.22921875 9.26566406 7.1928125 9.26179688 6.125 9.2578125 C4.57039063 9.26361328 4.57039063 9.26361328 2.984375 9.26953125 C1.99953125 9.26824219 1.0146875 9.26695313 0 9.265625 C-0.91007812 9.26449707 -1.82015625 9.26336914 -2.7578125 9.26220703 C-4.875 9.1328125 -4.875 9.1328125 -5.875 8.1328125 C-6 4.6328125 -6 4.6328125 -5.875 1.1328125 C-4.22105883 -0.52112867 -2.27184587 0.00281567 0 0 Z " fill="#813FFF" transform="translate(41.875,50.8671875)"/>
<path d="M0 0 C4.95 0 9.9 0 15 0 C15 4.95 15 9.9 15 15 C10.05 15 5.1 15 0 15 C0 10.05 0 5.1 0 0 Z M3 3 C3 5.97 3 8.94 3 12 C5.97 12 8.94 12 12 12 C12 9.03 12 6.06 12 3 C9.03 3 6.06 3 3 3 Z " fill="#5652FF" transform="translate(15,30)"/>
<path d="M0 0 C3.3 0 6.6 0 10 0 C10.99 2.97 11.98 5.94 13 9 C7.72 9 2.44 9 -3 9 C-2.01 6.03 -1.02 3.06 0 0 Z " fill="#83C0FF" transform="translate(43,15)"/>
<path d="M0 0 C5.94 0 11.88 0 18 0 C18 0.99 18 1.98 18 3 C12.06 3 6.12 3 0 3 C0 2.01 0 1.02 0 0 Z " fill="#B32BFF" transform="translate(63,75)"/>
<path d="M0 0 C5.94 0 11.88 0 18 0 C18 0.99 18 1.98 18 3 C12.06 3 6.12 3 0 3 C0 2.01 0 1.02 0 0 Z " fill="#AEB4FF" transform="translate(39,54)"/>
<path d="M0 0 C3.96 0 7.92 0 12 0 C12 0.99 12 1.98 12 3 C8.04 3 4.08 3 0 3 C0 2.01 0 1.02 0 0 Z " fill="#A531FF" transform="translate(69,69)"/>
<path d="M0 0 C0.99 0 1.98 0 3 0 C3 1.98 3 3.96 3 6 C2.01 6 1.02 6 0 6 C0 4.02 0 2.04 0 0 Z " fill="#B02CFF" transform="translate(33,72)"/>
<path d="M0 0 C0.99 0 1.98 0 3 0 C3 1.98 3 3.96 3 6 C2.01 6 1.02 6 0 6 C0 4.02 0 2.04 0 0 Z " fill="#B02CFF" transform="translate(27,72)"/>
<path d="M0 0 C0.99 0 1.98 0 3 0 C3 1.98 3 3.96 3 6 C2.01 6 1.02 6 0 6 C0 4.02 0 2.04 0 0 Z " fill="#B02CFF" transform="translate(21,72)"/>
<path d="M0 0 C0.99 0 1.98 0 3 0 C3 1.98 3 3.96 3 6 C2.01 6 1.02 6 0 6 C0 4.02 0 2.04 0 0 Z " fill="#B02CFF" transform="translate(15,72)"/>
</svg>
