<svg xmlns="http://www.w3.org/2000/svg" version="1.1" xmlns:xlink="http://www.w3.org/1999/xlink" width="512" height="512" x="0" y="0" viewBox="0 0 512 512" style="enable-background:new 0 0 512 512" xml:space="preserve" class=""><g transform="matrix(0.9999999999999999,0,0,0.9999999999999999,2.842170943040401e-14,2.842170943040401e-14)"><path d="M97.044 434.603v28.782c0 8.831 7.159 15.99 15.99 15.99H488.51c8.831 0 15.99-7.159 15.99-15.99V187.711M322.104 65.396h1.092M351.598 65.396h1.093M381.092 65.396h1.093M292.61 261.477h89.575M382.185 299.71H292.61M382.185 337.944H292.61" style="stroke-width:15;stroke-linecap:round;stroke-linejoin:round;stroke-miterlimit:10;" fill="none" stroke="#0be3bc" stroke-width="15" stroke-linecap="round" stroke-linejoin="round" stroke-miterlimit="10" data-original="#000000" opacity="1"></path><path d="M52.272 389.831v28.782c0 8.831 7.159 15.99 15.99 15.99h375.476c8.831 0 15.99-7.159 15.99-15.99V274M459.728 239v-96.061h-44.772" style="stroke-width:15;stroke-linecap:round;stroke-linejoin:round;stroke-miterlimit:10;" fill="none" stroke="#0be3bc" stroke-width="15" stroke-linecap="round" stroke-linejoin="round" stroke-miterlimit="10" data-original="#000000" opacity="1"></path><path d="M7.5 98.167h407.456" style="stroke-width:15;stroke-linejoin:round;stroke-miterlimit:10;" fill="none" stroke="#0be3bc" stroke-width="15" stroke-linejoin="round" stroke-miterlimit="10" data-original="#000000" opacity="1"></path><path d="M40.271 203.167v-66.899a5.33 5.33 0 0 1 5.33-5.33h331.253a5.33 5.33 0 0 1 5.33 5.33v66.899a5.33 5.33 0 0 1-5.33 5.33H45.601a5.33 5.33 0 0 1-5.33-5.33zM124.516 242.361H45.601a5.33 5.33 0 0 0-5.33 5.33V351.73a5.33 5.33 0 0 0 5.33 5.33h78.915a5.33 5.33 0 0 0 5.33-5.33V247.691a5.33 5.33 0 0 0-5.33-5.33z" style="stroke-width:15;stroke-linecap:round;stroke-linejoin:round;stroke-miterlimit:10;" fill="none" stroke="#0be3bc" stroke-width="15" stroke-linecap="round" stroke-linejoin="round" stroke-miterlimit="10" data-original="#000000" opacity="1"></path><path d="M459.728 142.939V93.387c0-8.831-7.159-15.99-15.99-15.99h-28.782M459.728 187.711H504.5v-49.552c0-8.831-7.159-15.99-15.99-15.99h-28.782" style="stroke-width:15;stroke-linejoin:round;stroke-miterlimit:10;" fill="none" stroke="#0be3bc" stroke-width="15" stroke-linejoin="round" stroke-miterlimit="10" data-original="#000000" opacity="1"></path><path d="M75 32.625H23.49c-8.831 0-15.99 7.159-15.99 15.99v325.227c0 8.831 7.159 15.99 15.99 15.99h375.476c8.831 0 15.99-7.159 15.99-15.99V48.615c0-8.831-7.159-15.99-15.99-15.99H110" style="stroke-width:15;stroke-linecap:round;stroke-linejoin:round;stroke-miterlimit:10;" fill="none" stroke="#0be3bc" stroke-width="15" stroke-linecap="round" stroke-linejoin="round" stroke-miterlimit="10" data-original="#000000" opacity="1"></path><path d="M166.441 317v34.73a5.33 5.33 0 0 0 5.33 5.33h78.915a5.33 5.33 0 0 0 5.33-5.33V247.691a5.33 5.33 0 0 0-5.33-5.33h-78.915a5.33 5.33 0 0 0-5.33 5.33V282" style="stroke-width:15;stroke-linecap:round;stroke-linejoin:round;stroke-miterlimit:10;" fill="none" stroke="#0be3bc" stroke-width="15" stroke-linecap="round" stroke-linejoin="round" stroke-miterlimit="10" data-original="#000000" opacity="1"></path></g></svg>