<svg version="1.1" id="Capa_1" xmlns="http://www.w3.org/2000/svg" xmlns:xlink="http://www.w3.org/1999/xlink" x="0px" y="0px" viewBox="0 0 512 512" style="enable-background:new 0 0 512 512;" xml:space="preserve">
<g>
	<g>
		<path style="fill:none;stroke:#000000;stroke-width:15;stroke-linecap:round;stroke-linejoin:round;stroke-miterlimit:10;" d="&#10;&#9;&#9;&#9;M97.044,434.603v28.782c0,8.831,7.159,15.99,15.99,15.99H488.51c8.831,0,15.99-7.159,15.99-15.99V187.711"/>
		
			<line style="fill:none;stroke:#000000;stroke-width:15;stroke-linecap:round;stroke-linejoin:round;stroke-miterlimit:10;" x1="322.104" y1="65.396" x2="323.196" y2="65.396"/>
		
			<line style="fill:none;stroke:#000000;stroke-width:15;stroke-linecap:round;stroke-linejoin:round;stroke-miterlimit:10;" x1="351.598" y1="65.396" x2="352.691" y2="65.396"/>
		
			<line style="fill:none;stroke:#000000;stroke-width:15;stroke-linecap:round;stroke-linejoin:round;stroke-miterlimit:10;" x1="381.092" y1="65.396" x2="382.185" y2="65.396"/>
		
			<line style="fill:none;stroke:#000000;stroke-width:15;stroke-linecap:round;stroke-linejoin:round;stroke-miterlimit:10;" x1="292.61" y1="261.477" x2="382.185" y2="261.477"/>
		
			<line style="fill:none;stroke:#000000;stroke-width:15;stroke-linecap:round;stroke-linejoin:round;stroke-miterlimit:10;" x1="382.185" y1="299.71" x2="292.61" y2="299.71"/>
		
			<line style="fill:none;stroke:#000000;stroke-width:15;stroke-linecap:round;stroke-linejoin:round;stroke-miterlimit:10;" x1="382.185" y1="337.944" x2="292.61" y2="337.944"/>
		<path style="fill:none;stroke:#000000;stroke-width:15;stroke-linecap:round;stroke-linejoin:round;stroke-miterlimit:10;" d="&#10;&#9;&#9;&#9;M52.272,389.831v28.782c0,8.831,7.159,15.99,15.99,15.99h375.476c8.831,0,15.99-7.159,15.99-15.99V274"/>
		
			<polyline style="fill:none;stroke:#000000;stroke-width:15;stroke-linecap:round;stroke-linejoin:round;stroke-miterlimit:10;" points="&#10;&#9;&#9;&#9;459.728,239 459.728,142.939 414.956,142.939 &#9;&#9;"/>
		
			<line style="fill:none;stroke:#000000;stroke-width:15;stroke-linejoin:round;stroke-miterlimit:10;" x1="7.5" y1="98.167" x2="414.956" y2="98.167"/>
		<path style="fill:none;stroke:#000000;stroke-width:15;stroke-linecap:round;stroke-linejoin:round;stroke-miterlimit:10;" d="&#10;&#9;&#9;&#9;M40.271,203.167v-66.899c0-2.944,2.386-5.33,5.33-5.33h331.253c2.944,0,5.33,2.386,5.33,5.33v66.899c0,2.944-2.386,5.33-5.33,5.33&#10;&#9;&#9;&#9;H45.601C42.658,208.497,40.271,206.111,40.271,203.167z"/>
		<path style="fill:none;stroke:#000000;stroke-width:15;stroke-linecap:round;stroke-linejoin:round;stroke-miterlimit:10;" d="&#10;&#9;&#9;&#9;M124.516,242.361H45.601c-2.944,0-5.33,2.386-5.33,5.33V351.73c0,2.944,2.386,5.33,5.33,5.33h78.915c2.944,0,5.33-2.386,5.33-5.33&#10;&#9;&#9;&#9;V247.691C129.846,244.747,127.46,242.361,124.516,242.361z"/>
		<path style="fill:none;stroke:#000000;stroke-width:15;stroke-linejoin:round;stroke-miterlimit:10;" d="M459.728,142.939V93.387&#10;&#9;&#9;&#9;c0-8.831-7.159-15.99-15.99-15.99h-28.782"/>
		<path style="fill:none;stroke:#000000;stroke-width:15;stroke-linejoin:round;stroke-miterlimit:10;" d="M459.728,187.711H504.5&#10;&#9;&#9;&#9;v-49.552c0-8.831-7.159-15.99-15.99-15.99h-28.782"/>
		<path style="fill:none;stroke:#000000;stroke-width:15;stroke-linecap:round;stroke-linejoin:round;stroke-miterlimit:10;" d="&#10;&#9;&#9;&#9;M75,32.625H23.49c-8.831,0-15.99,7.159-15.99,15.99v325.227c0,8.831,7.159,15.99,15.99,15.99h375.476&#10;&#9;&#9;&#9;c8.831,0,15.99-7.159,15.99-15.99V48.615c0-8.831-7.159-15.99-15.99-15.99H110"/>
		<path style="fill:none;stroke:#000000;stroke-width:15;stroke-linecap:round;stroke-linejoin:round;stroke-miterlimit:10;" d="&#10;&#9;&#9;&#9;M166.441,317v34.73c0,2.944,2.386,5.33,5.33,5.33h78.915c2.944,0,5.33-2.386,5.33-5.33V247.691c0-2.944-2.386-5.33-5.33-5.33&#10;&#9;&#9;&#9;h-78.915c-2.944,0-5.33,2.386-5.33,5.33V282"/>
	</g>
</g>
<g>
</g>
<g>
</g>
<g>
</g>
<g>
</g>
<g>
</g>
<g>
</g>
<g>
</g>
<g>
</g>
<g>
</g>
<g>
</g>
<g>
</g>
<g>
</g>
<g>
</g>
<g>
</g>
<g>
</g>
</svg>